<svg width="285" height="285" viewBox="0 0 285 285" fill="none" xmlns="http://www.w3.org/2000/svg">
<path d="M35.4092 260.818L92.2668 97.5769H194.48L249.935 256.712L242.682 257.363L188.064 103.893H98.6024L42.3183 260.818H35.4092Z" fill="#262626"/>
<path d="M80.3184 152L81.7466 147.028C88.473 146.992 121.539 146.818 121.773 146.818C126.091 146.818 125.348 149.046 124.364 152C124.274 152.269 90.6347 241.391 82.9093 260.818H42.3184L44.0456 254.773H77.5002L115.909 154.5C115.909 154.5 118.091 152 115.5 152C112.046 152 80.3184 152 80.3184 152Z" fill="#262626"/>
<path d="M164.551 82.413C164.551 86.7691 164.551 94.1185 164.551 97.577C164.551 105.594 151.215 102.52 143.38 102.52C135.701 102.52 122.196 105.401 122.196 97.577C122.196 93.907 122.196 86.9523 122.196 82.413C122.196 69.2179 131.68 58.5227 143.385 58.5227C155.09 58.5227 164.551 69.2179 164.551 82.413Z" fill="#262626"/>
<path d="M133.024 76.3042H155.571C155.571 76.3042 156.985 82.7843 157.103 87.3471C157.221 91.9099 155.571 97.5771 155.571 97.5771L138.742 97.4737L142.259 95.4813L137.017 92.5255L140.67 89.9833C140.67 89.9833 131.879 87.7183 131.516 87.5069C131.43 87.4584 131.359 87.3883 131.31 87.3037C131.261 87.2191 131.235 87.1231 131.235 87.0252C131.235 86.9274 131.261 86.8313 131.31 86.7467C131.359 86.6621 131.43 86.592 131.516 86.5436C131.893 86.3885 142.697 84.4666 144.135 83.8134C145.573 83.1602 148.038 81.8914 144.135 79.9225C140.232 77.9536 133.764 78.3671 133.038 78.1745C132.848 78.1036 132.683 77.9767 132.566 77.8106C132.45 77.6445 132.386 77.4469 132.385 77.2442C132.383 77.0414 132.444 76.843 132.558 76.6751C132.672 76.5073 132.834 76.3779 133.024 76.3042Z" fill="white"/>
<path d="M177.137 75.4018C184.08 74.4459 191.118 74.4048 198.072 75.2797C209.536 76.7364 197.977 77.352 197.977 77.352C197.977 77.352 178.066 78.1555 177.425 78.1555C176.19 78.1555 175.143 76.1302 177.137 75.4018Z" fill="#262626"/>
<path d="M119.316 50.6893C119.316 50.6893 105.273 39.1295 85.0026 30.6758C64.7326 22.2221 83.2019 34.1767 83.2019 34.1767C83.2019 34.1767 115.172 54.3358 116.2 54.942C118.25 56.1027 121.903 53.7672 119.316 50.6893Z" fill="#262626"/>
<path d="M168.138 50.6893C168.138 50.6893 182.2 39.1295 202.432 30.6758C222.664 22.2221 204.266 34.1767 204.266 34.1767C204.266 34.1767 172.296 54.3358 171.24 54.942C169.199 56.1027 165.545 53.7672 168.138 50.6893Z" fill="#262626"/>
<path d="M110.316 75.402C103.374 74.4462 96.3351 74.4051 89.3817 75.2798C77.9174 76.7365 89.4713 77.3521 89.4713 77.3521C89.4713 77.3521 109.388 78.1556 110.029 78.1556C111.259 78.1556 112.31 76.1303 110.316 75.402Z" fill="#262626"/>
<path d="M142.357 38.0157C141.395 31.0953 141.353 24.0786 142.23 17.147C143.691 5.71875 144.309 17.2363 144.309 17.2363C144.309 17.2363 145.115 37.09 145.115 37.7291C145.115 38.9556 143.083 40.0035 142.357 38.0157Z" fill="#262626"/>
<path d="M101.046 228.863L133.864 145.889C133.864 145.889 139.976 144.67 139.91 147.616C139.82 151.517 108.818 227.071 108.818 227.071H166.682L154.591 191.662C154.591 191.662 159.603 187.46 160.637 189.071C163.296 193.213 186.546 260.818 186.546 260.818C186.546 260.818 116.591 260.818 94.1365 260.818C90.9127 260.818 90.0524 258.463 92.4094 253.045C94.7664 247.627 97.5912 240.091 97.5912 240.091C97.5912 240.091 103.637 239.411 103.637 241.818C103.637 241.818 95.8637 255.636 101.046 254.773C101.897 254.631 177.046 254.773 177.046 254.773L169.273 233.182H105.364C105.364 233.182 99.3185 234.045 101.046 228.863Z" fill="#262626"/>
<path d="M238.364 244.409C238.364 244.409 222.47 248.741 215.046 250.454C203.818 253.045 193.455 256.5 190.864 256.5C189.34 256.5 187.455 252.181 186.546 248.727C185.636 245.273 162.364 179.636 162.364 179.636C162.364 179.636 163.555 174.759 169.273 178.772C169.917 179.225 182.513 214.651 190.203 237.912C191.487 241.794 193.455 247.863 193.455 247.863C195.182 250.454 235.773 237.5 235.773 237.5L238.364 244.409Z" fill="#262626"/>
<path d="M167.87 158.839C168.525 149.657 172.263 133.821 173.649 130.057C175.035 126.293 177.382 126.199 179.423 130.057C181.465 133.915 175.817 155.23 173.649 160.714C171.48 166.198 167.219 168.017 167.87 158.839Z" fill="#262626"/>
<path d="M10.3638 259.091C43.2201 259.091 43.2201 273.188 76.0763 273.188C108.933 273.188 108.933 259.091 141.789 259.091C174.645 259.091 174.645 273.188 207.506 273.188C240.367 273.188 240.362 259.091 273.219 259.091" stroke="#246BAA" stroke-width="6" stroke-linecap="round" stroke-linejoin="round"/>
</svg>
